<?xml version="1.0" encoding="utf-8"?>
<!-- Generator: Adobe Illustrator 16.0.0, SVG Export Plug-In . SVG Version: 6.00 Build 0)  -->
<!DOCTYPE svg PUBLIC "-//W3C//DTD SVG 1.1//EN" "http://www.w3.org/Graphics/SVG/1.1/DTD/svg11.dtd">
<svg version="1.1" id="Artwork" xmlns="http://www.w3.org/2000/svg" xmlns:xlink="http://www.w3.org/1999/xlink" x="0px" y="0px"
	 width="512px" height="512px" viewBox="0 0 512 512" enable-background="new 0 0 512 512" xml:space="preserve">
<g>
	<path d="M423.317,283.908l-149.416-65.125c-8.626-3.762-22.757-3.767-31.389-0.015L92.686,283.919
		c-8.634,3.757-12.995,14.307-9.689,23.45l39.91,110.471c3.306,9.144,13.656,16.623,23.011,16.623h224.167
		c9.354,0,19.703-7.479,23.007-16.623l39.914-110.471C436.307,298.226,431.949,287.667,423.317,283.908z"/>
	<path d="M151.449,246.818c18.932-6.44,88.602-38.701,88.602-38.701c4.933-2.146,11.372-3.329,18.135-3.329
		c6.782,0,13.242,1.189,18.183,3.345c0,0,68.33,29.614,86.295,37.602c11.684,5.194,11.684-4.974,11.684-4.974v-61.049
		c0-8.281-6.483-15.057-14.408-15.057H156.056c-7.922,0-14.408,6.775-14.408,15.057v62.044
		C141.648,241.756,141.55,250.185,151.449,246.818z M188.563,180.723c0-2.456,1.922-4.466,4.272-4.466H323.16
		c2.351,0,4.272,2.01,4.272,4.466v1.938c0,2.456-1.922,4.466-4.272,4.466H192.835c-2.35,0-4.272-2.01-4.272-4.466V180.723z"/>
	<path d="M197.226,153.25h121.54c7.799,0,14.193-6.568,14.393-14.669l0.02-35.65c0-8.28-6.485-15.058-14.408-15.058H197.23
		c-7.925,0-14.412,6.778-14.412,15.058l0.02,35.65C183.037,146.681,189.429,153.25,197.226,153.25z M302.428,107.398
		c7.907,0,14.313,6.697,14.313,14.958s-6.406,14.958-14.313,14.958c-7.905,0-14.315-6.697-14.315-14.958
		S294.523,107.398,302.428,107.398z M257.663,107.398c7.905,0,14.313,6.697,14.313,14.958s-6.408,14.958-14.313,14.958
		c-7.907,0-14.311-6.697-14.311-14.958S249.755,107.398,257.663,107.398z M212.899,107.398c7.907,0,14.313,6.697,14.313,14.958
		s-6.406,14.958-14.313,14.958c-7.905,0-14.313-6.697-14.313-14.958S204.994,107.398,212.899,107.398z"/>
</g>
</svg>
